<svg width="80" height="80" viewBox="0 0 80 80" fill="none" xmlns="http://www.w3.org/2000/svg">
<path d="M66.8125 34.5625C66.3125 32.8125 65.6875 31.1875 64.8125 29.625L70.3125 24.125L62.375 16.25L56.875 21.75C53.8125 20 50.3125 19.0625 46.6875 19L44.6875 11.5L33.875 14.375L35.875 21.875C32.75 23.6875 30.1875 26.3125 28.4375 29.3125L20.9375 27.3125L18.125 38.1875L25.625 40.1875C25.625 41.9375 25.875 43.6875 26.3125 45.4375C26.8125 47.1875 27.4375 48.8125 28.3125 50.375L22.8125 55.875L30.75 63.75L36.25 58.25C39.3125 60 42.8125 60.9375 46.4375 61L48.4375 68.5L59.25 65.625L57.25 58.125C60.375 56.3125 62.9375 53.6875 64.6875 50.6875L72.1875 52.6875L75.0625 41.875L67.5625 39.875C67.5625 38.0625 67.3125 36.3125 66.8125 34.5625ZM49.125 49.4375C43.875 50.8125 38.5625 47.75 37.125 42.5C35.6875 37.25 38.8125 31.9375 44.0625 30.5C49.3125 29.125 54.625 32.1875 56.0625 37.4375C57.4375 42.6875 54.3125 48.0625 49.125 49.4375Z" fill="#CADBEA"/>
<path d="M60.5625 34.5625C60.0625 32.8125 59.4375 31.1875 58.5625 29.625L64.0625 24.125L56.125 16.25L50.625 21.75C47.5625 20 44.0625 19.0625 40.4375 19L38.4375 11.5L27.625 14.375L29.625 21.875C26.5 23.6875 23.9375 26.3125 22.1875 29.3125L14.6875 27.3125L11.875 38.1875L19.375 40.1875C19.375 41.9375 19.625 43.6875 20.0625 45.4375C20.5625 47.1875 21.1875 48.8125 22.0625 50.375L16.5625 55.875L24.5 63.75L30 58.25C33.0625 60 36.5625 60.9375 40.1875 61L42.1875 68.5L53 65.625L51 58.125C54.125 56.3125 56.6875 53.6875 58.4375 50.6875L65.9375 52.6875L68.8125 41.875L61.3125 39.875C61.3125 38.0625 61.0625 36.3125 60.5625 34.5625ZM42.875 49.4375C37.625 50.8125 32.3125 47.75 30.875 42.5C29.4375 37.25 32.5625 31.9375 37.8125 30.5C43.0625 29.125 48.375 32.1875 49.8125 37.4375C51.1875 42.6875 48.0625 48.0625 42.875 49.4375Z" fill="white"/>
<path d="M42.1875 70.3126C41.375 70.3126 40.625 69.7501 40.375 68.9376L38.75 62.8126C35.875 62.625 33 61.8126 30.375 60.5626L25.875 65.0625C25.125 65.8125 23.9375 65.8125 23.25 65.0625L15.25 57.1251C14.5 56.3751 14.5 55.1875 15.25 54.5L19.75 50.0001C19.125 48.6876 18.625 47.3126 18.25 45.9376C17.875 44.5001 17.625 43.0626 17.5 41.6251L11.375 40.0001C10.875 39.8751 10.5 39.5626 10.25 39.1251C10 38.6876 9.9375 38.1876 10.0625 37.6876L12.9375 26.8751C13.0625 26.3751 13.375 26.0001 13.8125 25.7501C14.25 25.5001 14.75 25.4376 15.25 25.5626L21.375 27.1876C23 24.7501 25.0625 22.6876 27.5 21.0626L25.875 14.9376C25.625 13.9376 26.1875 12.9376 27.1875 12.6251L38 9.75005C39 9.50005 40 10.0626 40.3125 11.0626L41.9375 17.1876C44.8125 17.3751 47.6875 18.1876 50.3125 19.4376L54.8125 14.9376C55.5 14.2501 56.75 14.2501 57.4375 14.9376L65.375 22.8751C66.125 23.6251 66.125 24.8126 65.375 25.5001L60.875 30.0001C61.5 31.3126 62 32.6876 62.375 34.0626C62.75 35.5001 63 36.9376 63.125 38.3751L69.25 40.0001C70.25 40.2501 70.8125 41.3126 70.5625 42.3126L67.6875 53.1251C67.5625 53.6251 67.25 54.0001 66.8125 54.2501C66.375 54.5001 65.875 54.5625 65.375 54.4375L59.25 52.8126C57.625 55.2501 55.5625 57.3126 53.125 58.9376L54.75 65.0625C55 66.0625 54.4375 67.0626 53.4375 67.3751L42.625 70.2501C42.5 70.3126 42.3125 70.3126 42.1875 70.3126ZM30 56.375C30.3125 56.375 30.625 56.4375 30.9375 56.625C33.75 58.25 36.9375 59.0625 40.1875 59.125C41 59.125 41.75 59.6876 42 60.5001L43.5 66.1876L50.6875 64.2501L49.1875 58.5625C49 57.75 49.3125 56.8751 50.0625 56.4376C52.875 54.8126 55.1875 52.4376 56.8125 49.6876C57.25 48.9376 58.125 48.6251 58.9375 48.8126L64.625 50.3126L66.5625 43.1251L60.875 41.6251C60.0625 41.4376 59.5 40.6876 59.5 39.8126C59.5 38.1876 59.25 36.5626 58.875 35.0001C58.4375 33.4376 57.8125 31.9376 57.0625 30.5001C56.625 29.7501 56.75 28.8751 57.375 28.2501L61.5 24.1251L56.25 18.8751L52.125 23.0001C51.5 23.6251 50.625 23.7501 49.875 23.3126C47.0625 21.6876 43.875 20.8751 40.625 20.8126C39.8125 20.8126 39.0625 20.2501 38.8125 19.4376L37.3125 13.7501L30 15.7501L31.5 21.4376C31.6875 22.2501 31.375 23.1251 30.625 23.5626C27.8125 25.1876 25.5 27.5626 23.875 30.3126C23.4375 31.0626 22.5625 31.3751 21.75 31.1876L16.0625 29.6876L14.125 36.8751L19.8125 38.3751C20.625 38.5626 21.1875 39.3126 21.1875 40.1876C21.1875 41.8126 21.4375 43.4376 21.8125 45.0001C22.25 46.5626 22.875 48.0626 23.625 49.5001C24.0625 50.2501 23.9375 51.1251 23.3125 51.7501L19.1875 55.8751L24.4375 61.1251L28.625 57C29 56.5625 29.5 56.375 30 56.375ZM40.3125 51.6875C38.3125 51.6875 36.3125 51.1875 34.5 50.125C31.8125 48.5625 29.875 46.0626 29.0625 43.0626C28.25 40.0626 28.6875 36.9376 30.25 34.1876C31.8125 31.5001 34.3125 29.5626 37.3125 28.7501C43.5 27.0626 49.9375 30.8126 51.625 37.0001C52.4375 40.0001 52 43.1251 50.4375 45.8751C48.875 48.5626 46.375 50.5 43.375 51.3125C42.3125 51.5625 41.3125 51.6875 40.3125 51.6875ZM40.3125 32.0626C39.625 32.0626 38.9375 32.1251 38.25 32.3126C36.1875 32.8751 34.5 34.1876 33.4375 36.0001C32.375 37.8126 32.125 39.9376 32.625 42.0001C33.1875 44.0626 34.5 45.7501 36.3125 46.8126C38.125 47.8751 40.25 48.1251 42.3125 47.6251C44.375 47.0626 46.0625 45.7501 47.125 43.9376C48.1875 42.1251 48.4375 40.0001 47.9375 37.9376C47 34.4376 43.8125 32.0626 40.3125 32.0626Z" fill="#3F4A54"/>
</svg>
